<svg width="20" height="20" viewBox="0 0 20 20" fill="none" xmlns="http://www.w3.org/2000/svg">
<path d="M18.3333 10.8333V14.1667C18.3333 17.0833 16.6666 18.3333 14.1666 18.3333H5.83329C3.33329 18.3333 1.66663 17.0833 1.66663 14.1667V10.8333C1.66663 8.625 2.62496 7.37502 4.16663 6.90002C4.66663 6.74169 5.22496 6.66666 5.83329 6.66666H14.1666C14.775 6.66666 15.3333 6.74169 15.8333 6.90002C17.375 7.37502 18.3333 8.625 18.3333 10.8333Z" stroke="#1E478A" stroke-width="1.5" stroke-miterlimit="10" stroke-linecap="round" stroke-linejoin="round"/>
<path d="M15.8333 5.83333V6.90002C15.3333 6.74169 14.775 6.66666 14.1666 6.66666H5.83329C5.22496 6.66666 4.66663 6.74169 4.16663 6.90002V5.83333C4.16663 4.91666 4.91663 4.16666 5.83329 4.16666H14.1666C15.0833 4.16666 15.8333 4.91666 15.8333 5.83333Z" stroke="#1E478A" stroke-width="1.5" stroke-miterlimit="10" stroke-linecap="round" stroke-linejoin="round"/>
<path d="M13.3333 2.92501V4.16666H6.66663V2.92501C6.66663 2.23334 7.2333 1.66666 7.92497 1.66666H12.075C12.7666 1.66666 13.3333 2.23334 13.3333 2.92501Z" stroke="#1E478A" stroke-width="1.5" stroke-miterlimit="10" stroke-linecap="round" stroke-linejoin="round"/>
<path d="M7.55838 16.2083C8.16589 16.2083 8.65839 15.7159 8.65839 15.1083C8.65839 14.5008 8.16589 14.0083 7.55838 14.0083C6.95087 14.0083 6.45837 14.5008 6.45837 15.1083C6.45837 15.7159 6.95087 16.2083 7.55838 16.2083Z" stroke="#1E478A" stroke-width="1.5" stroke-linecap="round" stroke-linejoin="round"/>
<path d="M12.7084 14.375V10.0667C12.7084 9.14999 12.1334 9.01666 11.55 9.18333L9.34175 9.78331C8.94175 9.89164 8.66675 10.2083 8.66675 10.6666V11.4333V11.95V15.1083" stroke="#1E478A" stroke-width="1.5" stroke-linecap="round" stroke-linejoin="round"/>
<path d="M11.6083 15.475C12.2158 15.475 12.7083 14.9825 12.7083 14.375C12.7083 13.7675 12.2158 13.275 11.6083 13.275C11.0008 13.275 10.5083 13.7675 10.5083 14.375C10.5083 14.9825 11.0008 15.475 11.6083 15.475Z" stroke="#1E478A" stroke-width="1.5" stroke-linecap="round" stroke-linejoin="round"/>
<path d="M8.66675 11.9583L12.7084 10.8584" stroke="#1E478A" stroke-width="1.5" stroke-linecap="round" stroke-linejoin="round"/>
</svg>
