<svg width="382" height="50" viewBox="0 0 382 50" fill="none" xmlns="http://www.w3.org/2000/svg">
<rect x="0.5" y="0.5" width="381" height="49" rx="24.5" fill="white"/>
<rect x="0.5" y="0.5" width="381" height="49" rx="24.5" stroke="#E3E5E6"/>
<path d="M22.3516 31V20.9922H25.9062V19.7266H17.3906V20.9922H20.9453V31H22.3516ZM25.9766 34.0391C27.4453 34.0391 28.1172 33.4688 28.8125 31.5703L32.0078 22.875H30.5781L28.3281 29.6406H28.3047L26.0547 22.875H24.6016L27.6016 31.0078L27.4141 31.5781C27.1016 32.5234 26.6797 32.8906 25.9219 32.8906C25.75 32.8906 25.5391 32.8828 25.3906 32.8516V33.9922C25.5391 34.0234 25.8125 34.0391 25.9766 34.0391ZM37.0312 22.7344C35.8516 22.7344 34.9062 23.3359 34.4062 24.25H34.375V22.875H33.0859V33.7109H34.4453V29.6797H34.4766C34.9609 30.5703 35.8984 31.1406 37.0625 31.1406C39.1094 31.1406 40.5078 29.4844 40.5078 26.9375C40.5078 24.3906 39.1016 22.7344 37.0312 22.7344ZM36.7656 29.9453C35.375 29.9453 34.4375 28.75 34.4375 26.9375C34.4375 25.1328 35.375 23.9297 36.7656 23.9297C38.2109 23.9297 39.1172 25.1016 39.1172 26.9375C39.1172 28.7812 38.2109 29.9453 36.7656 29.9453ZM45.1406 23.9141C46.4219 23.9141 47.2734 24.8828 47.3047 26.2422H42.8906C42.9766 24.8906 43.8672 23.9141 45.1406 23.9141ZM47.2734 28.6719C47.0469 29.4375 46.2891 29.9609 45.2578 29.9609C43.7969 29.9609 42.8828 28.9375 42.8828 27.3828V27.3047H48.7109V26.7891C48.7109 24.3281 47.3594 22.7344 45.1641 22.7344C42.9219 22.7344 41.4844 24.4453 41.4844 26.9688C41.4844 29.5234 42.8984 31.1406 45.2266 31.1406C47 31.1406 48.375 30.0938 48.6094 28.6719H47.2734ZM54.0391 34.0391C55.5078 34.0391 56.1797 33.4688 56.875 31.5703L60.0703 22.875H58.6406L56.3906 29.6406H56.3672L54.1172 22.875H52.6641L55.6641 31.0078L55.4766 31.5781C55.1641 32.5234 54.7422 32.8906 53.9844 32.8906C53.8125 32.8906 53.6016 32.8828 53.4531 32.8516V33.9922C53.6016 34.0234 53.875 34.0391 54.0391 34.0391ZM64.2812 31.1406C66.5234 31.1406 68.0391 29.5234 68.0391 26.9375C68.0391 24.3438 66.5234 22.7344 64.2812 22.7344C62.0312 22.7344 60.5156 24.3438 60.5156 26.9375C60.5156 29.5234 62.0312 31.1406 64.2812 31.1406ZM64.2812 29.9453C62.8438 29.9453 61.8984 28.8516 61.8984 26.9375C61.8984 25.0234 62.8438 23.9297 64.2812 23.9297C65.7188 23.9297 66.6562 25.0234 66.6562 26.9375C66.6562 28.8516 65.7188 29.9453 64.2812 29.9453ZM76.0859 22.875H74.7266V27.6484C74.7266 29.0312 73.9297 29.9375 72.6094 29.9375C71.3516 29.9375 70.7344 29.2266 70.7344 27.9062V22.875H69.375V28.1484C69.375 29.9922 70.4141 31.1406 72.1875 31.1406C73.4375 31.1406 74.2812 30.6172 74.7656 29.6797H74.7969V31H76.0859V22.875ZM77.8516 31H79.2109V25.9375C79.2109 24.7891 79.8984 24.0312 80.9531 24.0312C81.2812 24.0312 81.5703 24.0703 81.6797 24.1094V22.7891C81.5703 22.7734 81.3672 22.7344 81.1328 22.7344C80.1797 22.7344 79.4297 23.3047 79.1641 24.2031H79.1328V22.875H77.8516V31ZM86.0703 31H87.4297V25.9062C87.4297 24.7812 88.2109 23.9375 89.2891 23.9375C90.2969 23.9375 90.9531 24.5781 90.9531 25.5547V31H92.3125V25.8359C92.3125 24.7344 93.0703 23.9375 94.1484 23.9375C95.2188 23.9375 95.8359 24.5938 95.8359 25.7031V31H97.1953V25.3906C97.1953 23.7812 96.1562 22.7344 94.5469 22.7344C93.4062 22.7344 92.4531 23.3125 92 24.2812H91.9688C91.6172 23.2969 90.7969 22.7344 89.6875 22.7344C88.5938 22.7344 87.7656 23.3125 87.3828 24.1719H87.3516V22.875H86.0703V31ZM102.188 23.9141C103.469 23.9141 104.32 24.8828 104.352 26.2422H99.9375C100.023 24.8906 100.914 23.9141 102.188 23.9141ZM104.32 28.6719C104.094 29.4375 103.336 29.9609 102.305 29.9609C100.844 29.9609 99.9297 28.9375 99.9297 27.3828V27.3047H105.758V26.7891C105.758 24.3281 104.406 22.7344 102.211 22.7344C99.9688 22.7344 98.5312 24.4453 98.5312 26.9688C98.5312 29.5234 99.9453 31.1406 102.273 31.1406C104.047 31.1406 105.422 30.0938 105.656 28.6719H104.32ZM106.992 25.1172C106.992 26.2266 107.695 26.9609 109.125 27.3281L110.555 27.6953C111.469 27.9375 111.805 28.25 111.805 28.8281C111.805 29.5625 111.125 30.0312 110.023 30.0312C108.922 30.0312 108.281 29.5781 108.133 28.7344H106.773C106.914 30.1719 108.156 31.1406 109.938 31.1406C111.836 31.1406 113.172 30.1406 113.172 28.7266C113.172 27.5312 112.578 26.9375 110.938 26.5234L109.68 26.2188C108.758 25.9844 108.328 25.6094 108.328 25.0469C108.328 24.3359 108.984 23.8438 109.977 23.8438C110.977 23.8438 111.609 24.3281 111.703 25.1094H113C112.938 23.7344 111.703 22.7344 110.023 22.7344C108.234 22.7344 106.992 23.7266 106.992 25.1172ZM114.445 25.1172C114.445 26.2266 115.148 26.9609 116.578 27.3281L118.008 27.6953C118.922 27.9375 119.258 28.25 119.258 28.8281C119.258 29.5625 118.578 30.0312 117.477 30.0312C116.375 30.0312 115.734 29.5781 115.586 28.7344H114.227C114.367 30.1719 115.609 31.1406 117.391 31.1406C119.289 31.1406 120.625 30.1406 120.625 28.7266C120.625 27.5312 120.031 26.9375 118.391 26.5234L117.133 26.2188C116.211 25.9844 115.781 25.6094 115.781 25.0469C115.781 24.3359 116.438 23.8438 117.43 23.8438C118.43 23.8438 119.062 24.3281 119.156 25.1094H120.453C120.391 23.7344 119.156 22.7344 117.477 22.7344C115.688 22.7344 114.445 23.7266 114.445 25.1172ZM124.719 29.9844C123.742 29.9844 123.094 29.4766 123.094 28.7031C123.094 27.9375 123.719 27.4531 124.812 27.3828L126.984 27.25V27.9141C126.984 29.0859 126 29.9844 124.719 29.9844ZM124.414 31.1406C125.508 31.1406 126.539 30.5312 127.023 29.6016H127.055V31H128.344V25.3828C128.344 23.7656 127.141 22.7344 125.234 22.7344C123.312 22.7344 122.109 23.8125 122.016 25.2188H123.328C123.5 24.4219 124.156 23.9297 125.203 23.9297C126.328 23.9297 126.984 24.5234 126.984 25.5156V26.1953L124.656 26.3281C122.781 26.4375 121.711 27.3125 121.711 28.7031C121.711 30.1641 122.797 31.1406 124.414 31.1406ZM133.375 29.8672C131.977 29.8672 131.062 28.7266 131.062 26.9062C131.062 25.0859 131.977 23.9297 133.375 23.9297C134.789 23.9297 135.734 25.1172 135.734 26.9062C135.734 28.6953 134.789 29.8672 133.375 29.8672ZM133.422 34.0625C135.664 34.0625 137.094 32.7734 137.094 30.8359V22.875H135.797V24.2422H135.773C135.234 23.2969 134.281 22.7344 133.133 22.7344C131.031 22.7344 129.672 24.3594 129.672 26.9062C129.672 29.4297 131.031 31.0625 133.102 31.0625C134.242 31.0625 135.203 30.4844 135.703 29.6016H135.734V30.8828C135.734 32.0938 134.883 32.9062 133.477 32.9062C132.461 32.9062 131.656 32.4141 131.391 31.6719H129.992C130.219 33.0547 131.633 34.0625 133.422 34.0625ZM142.125 23.9141C143.406 23.9141 144.258 24.8828 144.289 26.2422H139.875C139.961 24.8906 140.852 23.9141 142.125 23.9141ZM144.258 28.6719C144.031 29.4375 143.273 29.9609 142.242 29.9609C140.781 29.9609 139.867 28.9375 139.867 27.3828V27.3047H145.695V26.7891C145.695 24.3281 144.344 22.7344 142.148 22.7344C139.906 22.7344 138.469 24.4453 138.469 26.9688C138.469 29.5234 139.883 31.1406 142.211 31.1406C143.984 31.1406 145.359 30.0938 145.594 28.6719H144.258Z" fill="#72777A"/>
</svg>
